<svg width="16" height="20" viewBox="0 0 16 20" fill="none" xmlns="http://www.w3.org/2000/svg">
<path d="M7.77778 11.1111C8.87656 11.1111 9.95067 10.7853 10.8643 10.1748C11.7779 9.56438 12.49 8.69672 12.9104 7.68158C13.3309 6.66643 13.4409 5.5494 13.2266 4.47172C13.0122 3.39405 12.4831 2.40415 11.7061 1.62719C10.9292 0.850229 9.93928 0.321113 8.86161 0.106751C7.78394 -0.107611 6.6669 0.00240713 5.65176 0.422894C4.63661 0.843381 3.76895 1.55545 3.1585 2.46906C2.54805 3.38266 2.22222 4.45677 2.22222 5.55556C2.22222 7.02898 2.80754 8.44206 3.84941 9.48393C4.89127 10.5258 6.30435 11.1111 7.77778 11.1111V11.1111ZM7.77778 2.22222C8.43705 2.22222 9.08151 2.41772 9.62968 2.78399C10.1778 3.15026 10.6051 3.67086 10.8574 4.27995C11.1097 4.88903 11.1757 5.55926 11.0471 6.20586C10.9184 6.85246 10.601 7.44641 10.1348 7.91258C9.66862 8.37876 9.07468 8.69622 8.42808 8.82484C7.78147 8.95346 7.11125 8.88745 6.50217 8.63516C5.89308 8.38286 5.37248 7.95562 5.00621 7.40746C4.63994 6.85929 4.44444 6.21483 4.44444 5.55556C4.44444 4.6715 4.79563 3.82366 5.42075 3.19854C6.04588 2.57341 6.89372 2.22222 7.77778 2.22222V2.22222ZM15.5556 16.6667V18.8889C15.5556 19.1836 15.4385 19.4662 15.2301 19.6746C15.0217 19.8829 14.7391 20 14.4444 20C14.1498 20 13.8671 19.8829 13.6588 19.6746C13.4504 19.4662 13.3333 19.1836 13.3333 18.8889V16.6667C13.3333 16.372 13.2163 16.0894 13.0079 15.881C12.7995 15.6726 12.5169 15.5556 12.2222 15.5556H3.33333C3.03865 15.5556 2.75603 15.6726 2.54766 15.881C2.33929 16.0894 2.22222 16.372 2.22222 16.6667V18.8889C2.22222 19.1836 2.10516 19.4662 1.89678 19.6746C1.68841 19.8829 1.4058 20 1.11111 20C0.816426 20 0.533811 19.8829 0.325437 19.6746C0.117063 19.4662 0 19.1836 0 18.8889V16.6667C0 15.7826 0.35119 14.9348 0.976311 14.3096C1.60143 13.6845 2.44928 13.3333 3.33333 13.3333H12.2222C13.1063 13.3333 13.9541 13.6845 14.5792 14.3096C15.2044 14.9348 15.5556 15.7826 15.5556 16.6667Z" fill="#333333"/>
</svg>
