<svg width="36" height="36" viewBox="0 0 36 36" fill="none" xmlns="http://www.w3.org/2000/svg">
<circle cx="18" cy="18" r="18" fill="black" fill-opacity="0.2"/>
<circle cx="18" cy="18" r="13" fill="white"/>
<path d="M10.5725 17.6435C10.667 17.549 10.7952 17.4959 10.9289 17.4959C10.9289 17.4959 10.9289 17.4959 10.9289 17.4959L17.0024 17.503L17.5036 17.5035L17.503 17.0024L17.4959 10.9289C17.4959 10.9288 17.4959 10.9287 17.4959 10.9287C17.496 10.7951 17.5491 10.6669 17.6436 10.5725C17.7381 10.4779 17.8663 10.4248 18 10.4248C18.1337 10.4248 18.2619 10.4779 18.3564 10.5725C18.4509 10.6669 18.504 10.7951 18.5041 10.9287C18.5041 10.9287 18.5041 10.9288 18.5041 10.9289L18.497 17.0024L18.4964 17.5035L18.9976 17.503L25.0711 17.4959C25.0711 17.4959 25.0711 17.4959 25.0711 17.4959C25.2048 17.4959 25.333 17.549 25.4275 17.6435C25.522 17.7381 25.5752 17.8663 25.5752 18C25.5752 18.1337 25.522 18.2619 25.4275 18.3564C25.333 18.4509 25.2048 18.504 25.0712 18.5041C25.0712 18.5041 25.0711 18.5041 25.0711 18.5041L18.9976 18.497L18.4964 18.4964L18.497 18.9976L18.5041 25.071C18.5041 25.2047 18.451 25.333 18.3564 25.4275C18.2619 25.522 18.1337 25.5751 18 25.5751C17.8663 25.5751 17.7381 25.522 17.6436 25.4275C17.549 25.333 17.4959 25.2047 17.4959 25.071L17.503 18.9976L17.5036 18.4964L17.0024 18.497L10.9289 18.5041C10.9289 18.5041 10.9288 18.5041 10.9288 18.5041C10.7952 18.504 10.667 18.4509 10.5725 18.3564C10.478 18.2619 10.4248 18.1337 10.4248 18C10.4248 17.8663 10.478 17.7381 10.5725 17.6435Z" fill="#333333" stroke="#333333"/>
</svg>
