<svg width="21" height="20" viewBox="0 0 21 20" fill="none" xmlns="http://www.w3.org/2000/svg">
<path d="M9.28661 18.2304C9.28878 18.5786 9.18752 18.9196 8.99565 19.2102C8.80379 19.5007 8.52996 19.7278 8.20889 19.8626C7.88782 19.9973 7.53396 20.0337 7.19218 19.9671C6.8504 19.9005 6.5361 19.7339 6.28911 19.4885C6.04212 19.2431 5.87357 18.9298 5.80483 18.5884C5.7361 18.2471 5.77027 17.893 5.90301 17.5711C6.03576 17.2492 6.2611 16.9739 6.55047 16.7803C6.83984 16.5866 7.1802 16.4832 7.5284 16.4832C7.99281 16.4832 8.43836 16.6669 8.76777 16.9942C9.09718 17.3216 9.2837 17.766 9.28661 18.2304V18.2304ZM16.5282 16.4832C16.1805 16.4832 15.8405 16.5863 15.5514 16.7795C15.2623 16.9727 15.0369 17.2473 14.9038 17.5685C14.7708 17.8898 14.7359 18.2433 14.8038 18.5844C14.8716 18.9254 15.0391 19.2387 15.285 19.4846C15.5308 19.7305 15.8441 19.898 16.1852 19.9658C16.5262 20.0336 16.8798 19.9988 17.201 19.8657C17.5223 19.7327 17.7969 19.5073 17.9901 19.2182C18.1833 18.929 18.2864 18.5891 18.2864 18.2414C18.2864 17.7751 18.1012 17.3279 17.7714 16.9981C17.4417 16.6684 16.9945 16.4832 16.5282 16.4832ZM20.2534 5.76914L18.4732 12.9008C18.2923 13.6115 17.8797 14.2415 17.3005 14.6913C16.7214 15.1411 16.0088 15.385 15.2755 15.3843H8.78112C8.04636 15.3843 7.33264 15.1389 6.75329 14.687C6.17395 14.2351 5.76219 13.6025 5.5834 12.8898L2.94609 2.19779H1.19888C0.907442 2.19779 0.627939 2.08202 0.42186 1.87594C0.21578 1.66986 0.100006 1.39035 0.100006 1.09891C0.100006 0.807475 0.21578 0.527971 0.42186 0.321892C0.627939 0.115813 0.907442 3.9129e-05 1.19888 3.9129e-05H3.80322C4.05424 -0.0072743 4.30019 0.0716123 4.50013 0.223565C4.70007 0.375519 4.84193 0.59137 4.90209 0.835184L5.75922 4.39554H19.0556H19.1545C19.2564 4.37931 19.3603 4.37931 19.4622 4.39554C19.6047 4.43122 19.7386 4.4951 19.856 4.58342C19.9734 4.67174 20.0718 4.78269 20.1456 4.90973C20.2194 5.03676 20.2669 5.1773 20.2854 5.32302C20.3039 5.46875 20.293 5.6167 20.2534 5.75815V5.76914ZM17.7809 6.59329H6.30865L7.74818 12.3514C7.80563 12.5843 7.93768 12.7919 8.12418 12.9427C8.31068 13.0935 8.5414 13.1791 8.78112 13.1865H15.2425C15.4935 13.1939 15.7395 13.115 15.9394 12.963C16.1394 12.8111 16.2812 12.5952 16.3414 12.3514L17.7809 6.59329Z" fill="#45B7E9"/>
</svg>
