<svg width="12" height="12" viewBox="0 0 12 12" fill="none" xmlns="http://www.w3.org/2000/svg">
<path d="M11.71 10.29C11.8983 10.4783 12.0041 10.7337 12.0041 11C12.0041 11.2663 11.8983 11.5217 11.71 11.71C11.5217 11.8983 11.2663 12.0041 11 12.0041C10.7337 12.0041 10.4783 11.8983 10.29 11.71L6 7.41L1.71 11.71C1.5217 11.8983 1.2663 12.0041 1 12.0041C0.733701 12.0041 0.478306 11.8983 0.290002 11.71C0.101699 11.5217 -0.00408936 11.2663 -0.00408936 11C-0.00408936 10.7337 0.101699 10.4783 0.290002 10.29L4.59 6L0.290002 1.71C0.101699 1.5217 -0.00408936 1.2663 -0.00408936 1C-0.00408935 0.733701 0.101699 0.478306 0.290002 0.290002C0.478306 0.101699 0.733701 -0.00408935 1 -0.00408936C1.2663 -0.00408936 1.5217 0.101699 1.71 0.290002L6 4.59L10.29 0.290002C10.4783 0.101699 10.7337 -0.00408936 11 -0.00408936C11.2663 -0.00408936 11.5217 0.101699 11.71 0.290002C11.8983 0.478306 12.0041 0.733701 12.0041 1C12.0041 1.2663 11.8983 1.5217 11.71 1.71L7.41 6L11.71 10.29Z" fill="white"/>
</svg>
