<svg width="19" height="20" viewBox="0 0 19 20" fill="none" xmlns="http://www.w3.org/2000/svg">
<path d="M18.6752 10.918C18.6727 10.3647 18.5528 9.81836 18.3234 9.31489C18.0941 8.81143 17.7606 8.36235 17.3449 7.99731C17.3442 6.81414 17.0812 5.64583 16.5747 4.57654V4.57654C15.9262 3.20736 14.9023 2.05042 13.6222 1.24025C12.342 0.43009 10.8581 0 9.34312 0C7.82812 0 6.34424 0.43009 5.06407 1.24025C3.78389 2.05042 2.76 3.20736 2.11149 4.57654V4.57654C1.60659 5.64637 1.34363 6.81432 1.34132 7.99731C1.34132 7.99731 1.34132 7.99731 1.34132 7.99731L1.12127 8.18735C0.40011 8.97336 0 10.0013 0 11.068C0 12.1347 0.40011 13.1626 1.12127 13.9486C1.4774 14.3339 1.90885 14.6418 2.38888 14.8535C2.86891 15.0651 3.38729 15.1759 3.9119 15.1789H4.34199C4.47363 15.1797 4.60412 15.1545 4.72599 15.1047C4.84785 15.0549 4.95869 14.9816 5.05215 14.8889C5.22984 14.71 5.33344 14.4707 5.34222 14.2187V7.99731C5.34222 7.73203 5.23684 7.47762 5.04926 7.29004C4.86168 7.10246 4.60727 6.99708 4.34199 6.99708H3.9219C3.75435 7.00383 3.58735 7.02053 3.42179 7.0471C3.5092 6.48562 3.67766 5.93981 3.9219 5.42673C4.40886 4.40122 5.1767 3.53485 6.13629 2.92823C7.09588 2.3216 8.20786 1.9996 9.34312 1.9996C10.4784 1.9996 11.5903 2.3216 12.5499 2.92823C13.5095 3.53485 14.2774 4.40122 14.7643 5.42673V5.42673C15.0086 5.93981 15.177 6.48562 15.2644 7.0471C15.0989 7.02053 14.9319 7.00383 14.7643 6.99708H14.3442C14.079 6.99708 13.8245 7.10246 13.637 7.29004C13.4494 7.47762 13.344 7.73203 13.344 7.99731V13.8286C13.3433 13.9603 13.3685 14.0907 13.4183 14.2126C13.468 14.3345 13.5414 14.4453 13.6341 14.5388C13.7275 14.6315 13.8384 14.7048 13.9602 14.7546C14.0821 14.8044 14.2126 14.8296 14.3442 14.8288H14.7643C14.959 14.8242 15.153 14.8041 15.3445 14.7688V16.9993C15.3445 17.2646 15.2391 17.519 15.0515 17.7066C14.8639 17.8942 14.6095 17.9996 14.3442 17.9996H13.344C13.376 17.8347 13.3928 17.6673 13.394 17.4994C13.3941 17.1668 13.3278 16.8375 13.199 16.5308C13.0702 16.2241 12.8816 15.9462 12.644 15.7134C12.4065 15.4805 12.1249 15.2974 11.8157 15.1747C11.5066 15.052 11.176 14.9922 10.8435 14.9989H8.843C8.17981 14.9989 7.54379 15.2623 7.07484 15.7313C6.60589 16.2002 6.34244 16.8362 6.34244 17.4994C6.34244 18.1626 6.60589 18.7987 7.07484 19.2676C7.54379 19.7365 8.17981 20 8.843 20H14.3442C15.1401 20 15.9033 19.6839 16.466 19.1211C17.0288 18.5584 17.3449 17.7952 17.3449 16.9993V13.9987C17.3496 13.9521 17.3496 13.9052 17.3449 13.8586C17.7652 13.493 18.1016 13.0411 18.3312 12.5336C18.5608 12.0261 18.6781 11.475 18.6752 10.918V10.918ZM2.01147 11.108C2.00603 10.5492 2.21344 10.0092 2.5916 9.59767C2.79926 9.37714 3.05639 9.20914 3.34177 9.10756V13.1085C3.05881 13.0068 2.8024 12.8427 2.5916 12.6283C2.21367 12.2127 2.00649 11.6698 2.01147 11.108V11.108ZM9.34312 17.9996H8.843C8.71037 17.9996 8.58316 17.9469 8.48937 17.8531C8.39558 17.7593 8.34289 17.6321 8.34289 17.4994C8.34289 17.3668 8.39558 17.2396 8.48937 17.1458C8.58316 17.052 8.71037 16.9993 8.843 16.9993H10.8435C10.9761 16.9993 11.1033 17.052 11.1971 17.1458C11.2909 17.2396 11.3436 17.3668 11.3436 17.4994C11.3436 17.6321 11.2909 17.7593 11.1971 17.8531C11.1033 17.9469 10.9761 17.9996 10.8435 17.9996H9.34312ZM15.3445 12.7284V9.09756C15.7322 9.21759 16.0712 9.45858 16.3121 9.78525C16.5529 10.1119 16.6828 10.5071 16.6828 10.913C16.6828 11.3188 16.5529 11.714 16.3121 12.0407C16.0712 12.3673 15.7322 12.6083 15.3445 12.7284V12.7284Z" fill="white"/>
</svg>
