<svg width="10" height="6" viewBox="0 0 10 6" fill="none" xmlns="http://www.w3.org/2000/svg">
<path d="M9.71 1.71L5.71 5.71C5.61704 5.80373 5.50644 5.87812 5.38458 5.92889C5.26272 5.97966 5.13201 6.0058 5 6.0058C4.86799 6.0058 4.73728 5.97966 4.61543 5.92889C4.49357 5.87812 4.38297 5.80373 4.29 5.71L0.290002 1.71C0.196764 1.61676 0.122803 1.50607 0.0723429 1.38425C0.0218825 1.26243 -0.00408935 1.13186 -0.00408936 1C-0.00408936 0.868143 0.0218825 0.737574 0.0723429 0.615752C0.122803 0.49393 0.196764 0.38324 0.290002 0.290002C0.383241 0.196763 0.493931 0.122802 0.615753 0.0723419C0.737575 0.0218816 0.868143 -0.00408936 1 -0.00408936C1.13186 -0.00408935 1.26243 0.0218816 1.38425 0.0723419C1.50607 0.122802 1.61676 0.196763 1.71 0.290002L5 3.59L8.29 0.290002C8.47831 0.101698 8.7337 -0.00408936 9 -0.00408936C9.2663 -0.00408936 9.5217 0.101698 9.71 0.290002C9.8983 0.478306 10.0041 0.7337 10.0041 1C10.0041 1.2663 9.8983 1.5217 9.71 1.71V1.71Z" fill="#666666"/>
</svg>
