<svg width="133" height="20" viewBox="0 0 133 20" fill="none" xmlns="http://www.w3.org/2000/svg">
<path fill-rule="evenodd" clip-rule="evenodd" d="M0 1V20H3.78283V12.5326H14.1248V8.98614H3.78283V4.5467H15V1H0Z" fill="white"/>
<path fill-rule="evenodd" clip-rule="evenodd" d="M49.8966 6.77599C49.8966 7.30585 49.724 7.91078 49.4671 8.2815C49.1716 8.70701 48.7724 9.05571 48.2811 9.31715C47.7917 9.57744 47.2396 9.70933 46.6401 9.70933H41.3379V4.1557H46.6401C47.2497 4.1557 47.8076 4.2731 48.2993 4.5044C48.7884 4.73397 49.186 5.04208 49.4813 5.42034C49.7338 5.74411 49.8966 6.27628 49.8966 6.77599ZM49.8185 12.6528C50.4337 12.376 51.0003 12.018 51.5029 11.589C52.1861 11.005 52.7318 10.3137 53.1246 9.53368C53.5011 8.78498 53.7264 7.75397 53.7264 6.77599C53.7264 5.58759 53.4092 4.40788 52.8567 3.53889C52.2841 2.64237 51.5131 1.92179 50.5653 1.39657C49.6152 0.869618 48.5564 0.602081 47.4172 0.602081H37.6897V19.6395H41.3379V13.2618H45.9326L49.9675 19.605L49.9883 19.6374L54.0798 19.6719L49.724 12.6954L49.8185 12.6528Z" fill="white"/>
<path fill-rule="evenodd" clip-rule="evenodd" d="M66.6889 7.98754L60.9375 0.761456L60.8103 0.602325H57.434V19.6394H61.0827V6.75856L66.6889 13.2739L72.295 6.75856V19.6394H75.9438V0.602325H72.5651L66.6889 7.98754Z" fill="white"/>
<path fill-rule="evenodd" clip-rule="evenodd" d="M79.971 19.6395H94.0879V16.0859H83.6198V11.6639H92.9846V8.11023H83.6198V4.15574H94.0879V0.602112H79.971V19.6395Z" fill="white"/>
<path fill-rule="evenodd" clip-rule="evenodd" d="M110.731 13.1545L101.453 0.729328L101.328 0.602081H97.9536V19.6395H101.602V6.95194L110.931 19.6105L110.952 19.6395H114.378V0.602081H110.731V13.1545Z" fill="white"/>
<path fill-rule="evenodd" clip-rule="evenodd" d="M117.474 0.602203V4.15583H123.326V19.6396H126.975V4.15583H132.992V0.602203H117.474Z" fill="white"/>
<mask id="mask0_1_5" style="mask-type:luminance" maskUnits="userSpaceOnUse" x="15" y="0" width="20" height="20">
<path d="M15.1797 0.271301H34.8646V19.9999H15.1797V0.271301Z" fill="white"/>
</mask>
<g mask="url(#mask0_1_5)">
<path fill-rule="evenodd" clip-rule="evenodd" d="M31.3113 10.1362C31.3113 13.6115 28.49 16.4388 25.022 16.4388C21.554 16.4388 18.7327 13.6115 18.7327 10.1362C18.7327 6.66052 21.554 3.83269 25.022 3.83269C28.49 3.83269 31.3113 6.66052 31.3113 10.1362ZM25.022 0.27124C19.5949 0.27124 15.1797 4.69675 15.1797 10.1362C15.1797 15.575 19.5949 19.9999 25.022 19.9999C30.4494 19.9999 34.8646 15.575 34.8646 10.1362C34.8646 4.69675 30.4494 0.27124 25.022 0.27124Z" fill="white"/>
</g>
</svg>
