<svg width="6" height="10" viewBox="0 0 6 10" fill="none" xmlns="http://www.w3.org/2000/svg">
<path d="M5.71409 5.71409L1.71409 9.71409C1.52579 9.90239 1.27039 10.0082 1.00409 10.0082C0.73779 10.0082 0.482395 9.90239 0.294091 9.71409C0.105788 9.52579 0 9.27039 0 9.00409C0 8.73779 0.105788 8.4824 0.294091 8.29409L3.59409 5.00409L0.294091 1.71409C0.105788 1.52579 0 1.27039 0 1.00409C0 0.872233 0.0259709 0.741665 0.0764313 0.619843C0.126892 0.498021 0.200853 0.38733 0.294091 0.294092C0.38733 0.200853 0.49802 0.126893 0.619842 0.0764322C0.741664 0.0259719 0.872232 0 1.00409 0C1.27039 0 1.52579 0.105788 1.71409 0.294092L5.71409 4.29409C5.80782 4.38705 5.88221 4.49766 5.93298 4.61951C5.98375 4.74137 6.00989 4.87208 6.00989 5.00409C6.00989 5.1361 5.98375 5.26681 5.93298 5.38867C5.88221 5.51053 5.80782 5.62113 5.71409 5.71409V5.71409Z" fill="#333333"/>
</svg>
