<svg width="6" height="10" viewBox="0 0 6 10" fill="none" xmlns="http://www.w3.org/2000/svg">
<path d="M5.71 8.29C5.8983 8.47831 6.00409 8.7337 6.00409 9C6.00409 9.2663 5.8983 9.5217 5.71 9.71C5.5217 9.8983 5.2663 10.0041 5 10.0041C4.7337 10.0041 4.4783 9.8983 4.29 9.71L0.29 5.71C0.196272 5.61704 0.121877 5.50644 0.0711088 5.38458C0.0203401 5.26272 -0.00579834 5.13201 -0.00579834 5C-0.00579834 4.86799 0.0203401 4.73728 0.0711088 4.61543C0.121877 4.49357 0.196272 4.38297 0.29 4.29L4.29 0.290002C4.38324 0.196764 4.49393 0.122803 4.61575 0.0723429C4.73757 0.0218825 4.86814 -0.00408936 5 -0.00408936C5.13186 -0.00408936 5.26243 0.0218825 5.38425 0.0723429C5.50607 0.122803 5.61676 0.196764 5.71 0.290002C5.80324 0.383241 5.8772 0.493931 5.92766 0.615753C5.97812 0.737575 6.00409 0.868143 6.00409 1C6.00409 1.13186 5.97812 1.26243 5.92766 1.38425C5.8772 1.50607 5.80324 1.61676 5.71 1.71L2.41 5L5.71 8.29Z" fill="#333333"/>
</svg>
