<svg width="22" height="16" viewBox="0 0 22 16" fill="none" xmlns="http://www.w3.org/2000/svg">
<path fill-rule="evenodd" clip-rule="evenodd" d="M19.5978 0.465691C20.5447 0.71794 21.2898 1.46693 21.5421 2.42159C22 4.14853 21.9961 7.74987 21.9961 7.74987C21.9961 7.74987 21.9961 11.3512 21.5382 13.0781C21.2859 14.0289 20.5408 14.7779 19.5939 15.034C17.8786 15.4959 10.9981 15.4959 10.9981 15.4959C10.9981 15.4959 4.11748 15.4959 2.40219 15.034C1.45528 14.7818 0.710178 14.0328 0.457929 13.0781C0 11.3512 0 7.74987 0 7.74987C0 7.74987 0 4.14853 0.46181 2.41771C0.714059 1.46693 1.45916 0.71794 2.40607 0.46181C4.12136 0 11.0019 0 11.0019 0C11.0019 0 17.8786 0 19.5978 0.465691ZM8.7511 4.47842V11.0214L14.5024 7.7499L8.7511 4.47842Z" fill="#333333"/>
</svg>
