<svg width="14" height="16" viewBox="0 0 14 16" fill="none" xmlns="http://www.w3.org/2000/svg">
<path d="M7.71293 0.29293L13.7129 6.29293C13.8062 6.38617 13.8801 6.49686 13.9306 6.61868C13.9811 6.7405 14.007 6.87107 14.007 7.00293C14.007 7.13479 13.9811 7.26536 13.9306 7.38718C13.8801 7.509 13.8062 7.61969 13.7129 7.71293C13.6197 7.80617 13.509 7.88013 13.3872 7.93059C13.2654 7.98105 13.1348 8.00702 13.0029 8.00702C12.8711 8.00702 12.7405 7.98105 12.6187 7.93059C12.4969 7.88013 12.3862 7.80617 12.2929 7.71293L8.00293 3.41293L8.00293 15.0029C8.00293 15.2681 7.89758 15.5225 7.71004 15.71C7.5225 15.8976 7.26815 16.0029 7.00293 16.0029C6.73772 16.0029 6.48336 15.8976 6.29583 15.71C6.10829 15.5225 6.00293 15.2681 6.00293 15.0029L6.00293 3.41293L1.71293 7.71293C1.52463 7.90123 1.26923 8.00702 1.00293 8.00702C0.73663 8.00702 0.481235 7.90123 0.292932 7.71293C0.104628 7.52463 -0.00116005 7.26923 -0.00116006 7.00293C-0.00116008 6.73663 0.104628 6.48123 0.292932 6.29293L6.29293 0.29293C6.38589 0.199202 6.4965 0.124806 6.61835 0.0740373C6.74021 0.0232686 6.87092 -0.00286895 7.00293 -0.00286896C7.13494 -0.00286896 7.26565 0.0232686 7.38751 0.0740372C7.50937 0.124806 7.61997 0.199202 7.71293 0.29293V0.29293Z" fill="#333333"/>
</svg>
